<svg xmlns="http://www.w3.org/2000/svg" viewBox="0 0 24 24" width="20" height="20" fill="none">
  <path fill="white" stroke="white" stroke-width="1" d="M7.945,5.25 L13.055,5.25 C14.423,5.25 15.525,5.25 16.392,5.367 C17.292,5.488 18.05,5.746 18.652,6.348 C19.254,6.95 19.513,7.708 19.633,8.608 C19.644,8.687 19.654,8.767 19.662,8.85 L20.151,8.931 L20.175,8.935 C20.495,8.989 20.773,9.035 21.003,9.091 C21.246,9.15 21.485,9.23 21.712,9.375 C22.093,9.618 22.392,9.971 22.569,10.387 C22.675,10.635 22.715,10.884 22.733,11.134 C22.75,11.369 22.75,11.651 22.75,11.975 L22.75,12.025 C22.75,12.349 22.75,12.631 22.733,12.866 C22.715,13.116 22.675,13.365 22.569,13.613 C22.392,14.029 22.093,14.382 21.712,14.625 C21.485,14.77 21.246,14.85 21.003,14.909 C20.773,14.965 20.495,15.011 20.175,15.064 L19.662,15.15 C19.654,15.233 19.644,15.313 19.633,15.392 C19.513,16.292 19.254,17.05 18.652,17.652 C18.05,18.254 17.292,18.513 16.392,18.633 C15.525,18.75 14.422,18.75 13.055,18.75 L7.945,18.75 C6.578,18.75 5.475,18.75 4.608,18.633 C3.708,18.513 2.95,18.254 2.348,17.652 C1.746,17.05 1.488,16.292 1.367,15.392 C1.25,14.525 1.25,13.423 1.25,12.055 L1.25,11.945 C1.25,10.577 1.25,9.475 1.367,8.608 C1.488,7.708 1.746,6.95 2.348,6.348 C2.95,5.746 3.708,5.488 4.608,5.367 C5.475,5.25 6.577,5.25 7.945,5.25 Z M3.409,7.409 C3.132,7.686 2.952,8.074 2.853,8.808 C2.752,9.563 2.75,10.565 2.75,12 C2.75,13.435 2.752,14.436 2.853,15.192 C2.952,15.926 3.132,16.314 3.409,16.591 C3.686,16.868 4.074,17.048 4.808,17.147 C5.563,17.248 6.565,17.25 8,17.25 L13,17.25 C14.435,17.25 15.436,17.248 16.192,17.147 C16.926,17.048 17.314,16.868 17.591,16.591 C17.868,16.314 18.048,15.926 18.147,15.192 C18.248,14.436 18.25,13.435 18.25,12 C18.25,10.565 18.248,9.563 18.147,8.808 C18.048,8.074 17.868,7.686 17.591,7.409 C17.314,7.132 16.926,6.952 16.192,6.853 C15.436,6.752 14.435,6.75 13,6.75 L8,6.75 C6.565,6.75 5.563,6.752 4.808,6.853 C4.074,6.952 3.686,7.132 3.409,7.409 Z M19.742,10.384 C19.75,10.861 19.75,11.38 19.75,11.945 L19.75,12.055 C19.75,12.62 19.75,13.139 19.742,13.616 L19.904,13.589 C20.255,13.531 20.479,13.493 20.65,13.451 C20.811,13.412 20.872,13.382 20.904,13.361 C21.031,13.28 21.131,13.162 21.19,13.024 C21.205,12.989 21.225,12.924 21.237,12.758 C21.25,12.583 21.25,12.356 21.25,12 C21.25,11.644 21.25,11.417 21.237,11.242 C21.225,11.076 21.205,11.011 21.19,10.976 C21.131,10.837 21.031,10.72 20.904,10.639 C20.872,10.618 20.811,10.588 20.65,10.549 C20.479,10.507 20.255,10.469 19.904,10.411 Z" />
</svg>