<svg xmlns="http://www.w3.org/2000/svg" viewBox="0 0 24 24" width="24" height="24" color="#ffffff" fill="none">
    <defs />
    <path fill="white" d="M12.056,1.25 C13.894,1.25 15.35,1.25 16.489,1.403 C17.661,1.561 18.61,1.893 19.359,2.641 C20.107,3.39 20.439,4.339 20.597,5.511 C20.75,6.65 20.75,8.106 20.75,9.944 L20.75,13.464 L20.75,13.465 C20.751,14.163 20.751,14.716 20.541,15.224 C20.33,15.732 19.939,16.123 19.444,16.617 L14.548,21.512 C14.122,21.939 13.786,22.276 13.358,22.481 C13.27,22.523 13.179,22.561 13.087,22.593 C12.64,22.751 12.164,22.751 11.56,22.75 L11.408,22.75 C9.826,22.75 8.573,22.75 7.581,22.634 C6.562,22.515 5.723,22.266 5.019,21.698 C4.755,21.485 4.515,21.245 4.302,20.981 C3.734,20.277 3.485,19.438 3.366,18.419 C3.25,17.427 3.25,16.174 3.25,14.592 L3.25,9.943 C3.25,8.106 3.25,6.65 3.403,5.511 C3.561,4.339 3.893,3.39 4.641,2.641 C5.39,1.893 6.339,1.561 7.511,1.403 C8.65,1.25 10.106,1.25 11.944,1.25 Z M7.711,2.89 C6.705,3.025 6.125,3.279 5.702,3.702 C5.279,4.125 5.025,4.705 4.89,5.711 C4.752,6.739 4.75,8.093 4.75,10 L4.75,14.544 C4.75,16.185 4.751,17.35 4.856,18.245 C4.958,19.124 5.152,19.645 5.47,20.04 C5.615,20.22 5.78,20.385 5.96,20.53 C6.355,20.848 6.876,21.042 7.755,21.144 C8.65,21.249 9.815,21.25 11.456,21.25 C11.842,21.25 12.083,21.247 12.25,21.237 L12.25,20.945 C12.25,19.577 12.25,18.475 12.366,17.608 C12.488,16.708 12.746,15.95 13.348,15.348 C13.95,14.746 14.708,14.488 15.608,14.366 C16.475,14.25 17.577,14.25 18.945,14.25 L19.233,14.25 C19.247,14.058 19.25,13.781 19.25,13.343 L19.25,10 C19.25,8.093 19.248,6.739 19.11,5.711 C18.975,4.705 18.721,4.125 18.298,3.702 C17.875,3.279 17.295,3.025 16.289,2.89 C15.262,2.752 13.907,2.75 12,2.75 C10.093,2.75 8.739,2.752 7.711,2.89 Z M7.25,7 C7.25,6.586 7.586,6.25 8,6.25 L16,6.25 C16.414,6.25 16.75,6.586 16.75,7 C16.75,7.414 16.414,7.75 16,7.75 L8,7.75 C7.586,7.75 7.25,7.414 7.25,7 Z M18.188,15.751 C17.174,15.755 16.412,15.772 15.808,15.853 C15.074,15.952 14.686,16.132 14.409,16.409 C14.132,16.686 13.952,17.074 13.853,17.808 C13.772,18.412 13.755,19.174 13.751,20.188 Z M7.25,11 C7.25,10.586 7.586,10.25 8,10.25 L12,10.25 C12.414,10.25 12.75,10.586 12.75,11 C12.75,11.414 12.414,11.75 12,11.75 L8,11.75 C7.586,11.75 7.25,11.414 7.25,11 Z" />
</svg>