<svg xmlns="http://www.w3.org/2000/svg" viewBox="0 0 24 24" width="20" height="20" color="#ffffff" fill="none">
    <defs />
    <path fill="white" d="M12,3.75 C15.627,3.75 19.214,5.166 22.484,7.927 C22.8,8.194 22.84,8.667 22.573,8.984 C22.306,9.3 21.833,9.34 21.516,9.073 C18.47,6.501 15.216,5.25 12,5.25 C8.784,5.25 5.53,6.501 2.484,9.073 C2.167,9.34 1.694,9.3 1.427,8.984 C1.16,8.667 1.2,8.194 1.516,7.927 C4.786,5.166 8.374,3.75 12,3.75 Z M18.997,10.938 C19.307,11.213 19.336,11.687 19.062,11.997 C18.787,12.307 18.313,12.336 18.003,12.062 C14.527,8.987 9.711,8.967 5.98,12.076 C5.662,12.341 5.189,12.298 4.924,11.98 C4.659,11.662 4.702,11.189 5.02,10.924 C9.289,7.366 14.938,7.347 18.997,10.938 Z M12,15.75 C13.243,15.75 14.25,16.757 14.25,18 C14.25,19.243 13.243,20.25 12,20.25 C10.757,20.25 9.75,19.243 9.75,18 C9.75,16.757 10.757,15.75 12,15.75 Z M16.28,13.97 C16.573,14.263 16.573,14.737 16.28,15.03 C15.987,15.323 15.513,15.323 15.22,15.03 C13.513,13.323 10.487,13.323 8.78,15.03 C8.487,15.323 8.013,15.323 7.72,15.03 C7.427,14.737 7.427,14.263 7.72,13.97 C10.013,11.677 13.987,11.677 16.28,13.97 Z M11.25,18 C11.25,18.414 11.586,18.75 12,18.75 C12.414,18.75 12.75,18.414 12.75,18 C12.75,17.586 12.414,17.25 12,17.25 C11.586,17.25 11.25,17.586 11.25,18 Z" />
</svg>